<?xml version="1.0" encoding="UTF-8" standalone="no"?>
<svg
   width="576"
   height="576"
   version="1.0"
   viewBox="0 0 576 576"
   id="svg2"
   sodipodi:docname="penguin.svg"
   inkscape:version="1.3.1 (9b9bdc1480, 2023-11-25, custom)"
   xmlns:inkscape="http://www.inkscape.org/namespaces/inkscape"
   xmlns:sodipodi="http://sodipodi.sourceforge.net/DTD/sodipodi-0.dtd"
   xmlns="http://www.w3.org/2000/svg"
   xmlns:svg="http://www.w3.org/2000/svg">
  <defs
     id="defs2" />
  <sodipodi:namedview
     id="namedview2"
     pagecolor="#ffffff"
     bordercolor="#000000"
     borderopacity="0.25"
     inkscape:showpageshadow="2"
     inkscape:pageopacity="0.0"
     inkscape:pagecheckerboard="0"
     inkscape:deskcolor="#d1d1d1"
     showgrid="false"
     inkscape:zoom="0.870073"
     inkscape:cx="302.84815"
     inkscape:cy="191.93792"
     inkscape:window-width="1920"
     inkscape:window-height="1043"
     inkscape:window-x="0"
     inkscape:window-y="0"
     inkscape:window-maximized="1"
     inkscape:current-layer="svg2" />
  <path
     d="m 265.79181,1.5737778 c -56.1,8.5000002 -103.6,42.4000002 -127.9,91.2000002 -9.5,19.000002 -13.00001,34.700002 -13.00001,57.200002 0.1,18 1.8,27.2 8.30001,44.6 2.3,5.9 4.1,11.1 4.1,11.5 0,0.4 -4.4,6.5 -9.70001,13.5 -21.3,28.3 -37.599997,55.1 -54.699997,89.9 -21.6,43.8 -43.3,95.9 -44.4,106.8 -0.9,9 5.6,19.9 14.3,23.8 5.3,2.4 14.7,2.4 20.1,0 4.6,-2.1 8.7,-6.7 23.7,-26.8 5.9,-7.8 11,-14.4 11.6,-14.7 0.5,-0.3 1.2,2.4 1.6,6 2.199997,20.4 9.999997,46.7 19.599997,66.2 26.70001,53.8 72.80001,89.3 132.90001,102.3 13.7,3 47.4,3.8 62.2,1.5 62.4,-9.8 115.3,-47.9 142.9,-102.9 10.1,-20.1 16.8,-41.9 19.1,-62.6 1.5,-13.4 -0.4,-14.4 18.7,10.5 15.7,20.5 18.3,22.6 28,22.5 14,0 24.3,-10 24.4,-23.6 0,-8.6 -6.4,-25.5 -29.9,-79 -7.7,-17.7 -30.3,-61.9 -38.8,-76 -10,-16.6 -20.6,-32.1 -31.4,-45.9 l -8.5,-10.9 1.7,-4.6 c 9.1,-23.5 11,-33.4 11,-55.1 0,-14.7 -0.2,-17.6 -2.6,-26.6 -4.9,-18.5 -13.4,-36.500002 -24.4,-51.500002 -8.9,-12.2 -28.3,-30.7 -41.4,-39.6 -13.4,-9.1 -34.6,-18.9 -51.4,-23.8000002 -18.2,-5.20000004 -46.5,-6.9 -66.1,-3.9 z m -32.3,72.0000002 c 11.3,2.7 21.7,9.8 29.3,19.9 4.4,6.000001 6.1,9.600002 8.9,19.500002 2.2,7.8 4.8,11.4 9.8,13.9 5.4,2.6 8.1,2.6 13.4,0.2 5.3,-2.4 8.1,-6.4 10.5,-15.3 5.2,-18.600002 18.2,-32.400002 35.7,-37.800002 13.6,-4.2 32.8,-2 44.8,5.1 7.9,4.7 19.1,16.1 24.2,24.800002 21.4,36.2 10.6,88.3 -23.4,113.6 -10.8,8 -14.2,11.3 -15.5,15.2 -2.1,6.6 -0.8,8.6 17.6,26.8 13.7,13.5 18.7,19.2 24.4,27.9 24.8,37.5 34.8,77.5 29.6,119.2 -1.8,14.9 -4.3,24.7 -9.5,37.6 -14.5,36.2 -40.1,64.3 -75.5,82.9 -29.6,15.5 -67.4,20.5 -102.5,13.3 -29,-5.9 -57.1,-22.2 -80.5,-46.5 -11.6,-12.2 -19.5,-23.4 -26.4,-38 -16.2,-33.8 -19.8,-67 -11.6,-106.1 5,-24 17,-50.6 31.2,-69.1 6.6,-8.5 20.6,-23 28.1,-28.9 6.3,-5.1 10.1,-10.7 10.2,-15.2 0,-5 -4.2,-10.6 -12.4,-16.5 -21.9,-15.9 -34.7,-37.1 -37.6,-62.7 -1.9,-16.2 1.1,-34.7 7.7,-47.9 14.9,-30.000002 40.2,-43.000002 69.5,-35.900002 z"
     id="path1"
     inkscape:label="body"
     style="display:inline"
     sodipodi:insensitive="true" />
  <path
     d="m 205.99181,124.47378 c -7.9,5.5 -9.7,15.3 -4.2,23.6 7.1,10.9 22.4,9.7 28.3,-2.2 7.3,-14.7 -10.5,-30.6 -24.1,-21.4 z m 146.2,-0.1 c -7.1,4.9 -9.1,15.2 -4.4,23.3 3.1,5.2 7.5,7.7 13.6,7.6 13.9,-0.2 21.3,-14.9 13.3,-26.4 -4.9,-7.1 -15.5,-9.2 -22.5,-4.5 z m -97.3,27.5 c -8.5,1.2 -12.1,8.5 -7.7,15.6 3.7,6 34.2,40.1 37.4,41.8 5.8,3 8.1,1.4 23.9,-17 22.8,-26.4 22.8,-26.4 22.8,-30.3 0,-2 -0.7,-4.6 -1.6,-5.9 -3.4,-4.8 -6,-5.1 -39.1,-5 -16.9,0.1 -33,0.5 -35.7,0.8 z"
     id="path2"
     inkscape:label="face"
     style="display:inline"
     sodipodi:insensitive="true" />
  <path
     id="path16"
     style="display:none"
     inkscape:label="nose"
     d="m 301.63672,151.0625 c -3.24551,-0.008 -6.90747,-7e-4 -11.04492,0.0117 -16.89995,0.1 -32.99922,0.49883 -35.69922,0.79883 -8.49995,1.2 -12.10117,8.50161 -7.70117,15.60156 3.69995,5.99995 34.20039,40.09883 37.40039,41.79883 5.79995,2.99995 8.10044,1.3999 23.90039,-17 22.79985,-26.3999 22.79883,-26.39883 22.79883,-30.29883 0,-2 -0.69961,-4.60039 -1.59961,-5.90039 -2.975,-4.2 -5.33624,-4.95567 -28.05469,-5.01172 z" />
  <path
     id="path12"
     style="display:none"
     inkscape:label="left_eye"
     d="m 215.21289,121.76367 c -3.07025,-0.11435 -6.24573,0.69844 -9.2207,2.71094 -7.89997,5.49997 -9.70117,15.29964 -4.20117,23.59961 7.09997,10.89997 22.40078,9.69877 28.30078,-2.20117 5.7031,-11.48435 -3.91375,-23.70098 -14.87891,-24.10938 z" />
  <path
     id="path3"
     inkscape:label="right_eye"
     d="m 361.0957,121.85938 c -3.14699,-0.0551 -6.27937,0.75117 -8.90429,2.51367 -7.1,4.89992 -9.10039,15.20086 -4.40039,23.30078 3.09992,5.19992 7.50156,7.69961 13.60156,7.59961 13.89984,-0.2 21.29875,-14.90047 13.29883,-26.40039 -3.0625,-4.4375 -8.35059,-6.92195 -13.59571,-7.01367 z"
     style="display:none" />
  <path
     id="path22"
     inkscape:label="right_eye_twinkle"
     d="m 360.46148,130.14218 c -4.02794,-0.0275 -8.03716,0.37481 -11.39688,1.25423 -9.0875,2.44488 -11.64786,7.58467 -5.63218,11.62623 3.96768,2.59457 9.60147,3.84183 17.40904,3.79192 17.79083,-0.0998 27.26091,-7.43478 17.02157,-13.17281 -3.91978,-2.21416 -10.68817,-3.45381 -17.40155,-3.49957 z"
     style="display:none;stroke-width:0.799148" />
</svg>
